<?xml version="1.0" standalone="no"?>
<svg viewBox="0 0 200 200" xmlns="http://www.w3.org/2000/svg">
  <path fill="#d8b8f2" d="M22.3,-39.8C30.7,-33.7,40.7,-31.5,50.7,-25.5C60.7,-19.5,70.7,-9.8,69.1,-0.9C67.5,7.9,54.2,15.8,45.1,23.2C35.9,30.7,30.9,37.7,24,41.9C17.2,46,8.6,47.3,2.1,43.6C-4.3,40,-8.7,31.3,-17.7,28.4C-26.8,25.5,-40.5,28.4,-50.3,24.7C-60.1,20.9,-66,10.4,-63,1.7C-60.1,-7,-48.3,-14,-43,-25.7C-37.8,-37.4,-39.1,-53.8,-33.1,-61.2C-27,-68.7,-13.5,-67.2,-3.3,-61.5C6.9,-55.8,13.8,-45.9,22.3,-39.8Z" transform="translate(100 100)" />
</svg>
